<mxfile host="app.diagrams.net" agent="Mozilla/5.0 (X11; Linux x86_64) AppleWebKit/537.36 (KHTML, like Gecko) Chrome/138.0.0.0 YaBrowser/25.8.0.0 Safari/537.36" version="28.2.5">
  <diagram name="Страница — 1" id="VVFLxj3z1F1GEr8hPZjJ">
    <mxGraphModel dx="1532" dy="864" grid="1" gridSize="10" guides="1" tooltips="1" connect="1" arrows="1" fold="1" page="1" pageScale="1" pageWidth="827" pageHeight="1169" math="0" shadow="0">
      <root>
        <mxCell id="0" />
        <mxCell id="1" parent="0" />
        <mxCell id="9qPh1k6vbmJMXDvl4d07-4" style="edgeStyle=orthogonalEdgeStyle;rounded=0;orthogonalLoop=1;jettySize=auto;html=1;entryX=0;entryY=0.5;entryDx=0;entryDy=0;" parent="1" source="9qPh1k6vbmJMXDvl4d07-1" target="9qPh1k6vbmJMXDvl4d07-2" edge="1">
          <mxGeometry relative="1" as="geometry" />
        </mxCell>
        <mxCell id="9qPh1k6vbmJMXDvl4d07-5" value="Приходит на прием" style="edgeLabel;html=1;align=center;verticalAlign=middle;resizable=0;points=[];" parent="9qPh1k6vbmJMXDvl4d07-4" vertex="1" connectable="0">
          <mxGeometry x="0.0703" relative="1" as="geometry">
            <mxPoint as="offset" />
          </mxGeometry>
        </mxCell>
        <mxCell id="9qPh1k6vbmJMXDvl4d07-1" value="Пациент" style="rounded=0;whiteSpace=wrap;html=1;" parent="1" vertex="1">
          <mxGeometry x="10" y="80" width="120" height="60" as="geometry" />
        </mxCell>
        <mxCell id="9qPh1k6vbmJMXDvl4d07-7" style="edgeStyle=orthogonalEdgeStyle;rounded=0;orthogonalLoop=1;jettySize=auto;html=1;entryX=0;entryY=0.5;entryDx=0;entryDy=0;" parent="1" target="9qPh1k6vbmJMXDvl4d07-6" edge="1">
          <mxGeometry relative="1" as="geometry">
            <mxPoint x="400" y="110" as="sourcePoint" />
            <Array as="points">
              <mxPoint x="634" y="110" />
            </Array>
          </mxGeometry>
        </mxCell>
        <mxCell id="9qPh1k6vbmJMXDvl4d07-8" value="данные пациента PII&lt;div&gt;mTLS, контроль доступа&lt;/div&gt;" style="edgeLabel;html=1;align=center;verticalAlign=middle;resizable=0;points=[];" parent="9qPh1k6vbmJMXDvl4d07-7" vertex="1" connectable="0">
          <mxGeometry x="0.251" y="3" relative="1" as="geometry">
            <mxPoint as="offset" />
          </mxGeometry>
        </mxCell>
        <mxCell id="9qPh1k6vbmJMXDvl4d07-16" style="edgeStyle=orthogonalEdgeStyle;rounded=0;orthogonalLoop=1;jettySize=auto;html=1;entryX=0.5;entryY=0;entryDx=0;entryDy=0;" parent="1" source="9qPh1k6vbmJMXDvl4d07-2" target="9qPh1k6vbmJMXDvl4d07-15" edge="1">
          <mxGeometry relative="1" as="geometry" />
        </mxCell>
        <mxCell id="9qPh1k6vbmJMXDvl4d07-19" value="передает биоматериал" style="edgeLabel;html=1;align=center;verticalAlign=middle;resizable=0;points=[];" parent="9qPh1k6vbmJMXDvl4d07-16" vertex="1" connectable="0">
          <mxGeometry x="-0.0809" y="-1" relative="1" as="geometry">
            <mxPoint as="offset" />
          </mxGeometry>
        </mxCell>
        <mxCell id="9qPh1k6vbmJMXDvl4d07-21" style="edgeStyle=orthogonalEdgeStyle;rounded=0;orthogonalLoop=1;jettySize=auto;html=1;entryX=0;entryY=0.25;entryDx=0;entryDy=0;" parent="1" source="9qPh1k6vbmJMXDvl4d07-2" target="9qPh1k6vbmJMXDvl4d07-12" edge="1">
          <mxGeometry relative="1" as="geometry" />
        </mxCell>
        <mxCell id="9qPh1k6vbmJMXDvl4d07-22" value="назначение на анализы PHI&lt;div&gt;mTLS, контроль доступа&lt;/div&gt;" style="edgeLabel;html=1;align=center;verticalAlign=middle;resizable=0;points=[];" parent="9qPh1k6vbmJMXDvl4d07-21" vertex="1" connectable="0">
          <mxGeometry x="0.0502" y="-1" relative="1" as="geometry">
            <mxPoint as="offset" />
          </mxGeometry>
        </mxCell>
        <mxCell id="9qPh1k6vbmJMXDvl4d07-2" value="Медик" style="rounded=0;whiteSpace=wrap;html=1;" parent="1" vertex="1">
          <mxGeometry x="270" y="80" width="120" height="60" as="geometry" />
        </mxCell>
        <mxCell id="9qPh1k6vbmJMXDvl4d07-6" value="&lt;div&gt;журнал приема&lt;/div&gt;excel file на общем диске&lt;div&gt;шифрование, контроль доступа&lt;/div&gt;" style="rounded=0;whiteSpace=wrap;html=1;" parent="1" vertex="1">
          <mxGeometry x="634" y="80" width="156" height="60" as="geometry" />
        </mxCell>
        <mxCell id="9qPh1k6vbmJMXDvl4d07-12" value="&lt;div&gt;анализы&lt;/div&gt;excel file на общем диске&lt;div&gt;шифрование, контроль доступа&lt;/div&gt;" style="rounded=0;whiteSpace=wrap;html=1;" parent="1" vertex="1">
          <mxGeometry x="634" y="220" width="156" height="60" as="geometry" />
        </mxCell>
        <mxCell id="9qPh1k6vbmJMXDvl4d07-17" style="edgeStyle=orthogonalEdgeStyle;rounded=0;orthogonalLoop=1;jettySize=auto;html=1;entryX=0;entryY=0.5;entryDx=0;entryDy=0;" parent="1" source="9qPh1k6vbmJMXDvl4d07-15" target="9qPh1k6vbmJMXDvl4d07-12" edge="1">
          <mxGeometry relative="1" as="geometry">
            <Array as="points">
              <mxPoint x="620" y="250" />
              <mxPoint x="620" y="250" />
            </Array>
          </mxGeometry>
        </mxCell>
        <mxCell id="9qPh1k6vbmJMXDvl4d07-18" value="результаты анализов&lt;div&gt;пациента PHI&lt;/div&gt;&lt;div&gt;mTLS, контроль доступа&lt;/div&gt;" style="edgeLabel;html=1;align=center;verticalAlign=middle;resizable=0;points=[];" parent="9qPh1k6vbmJMXDvl4d07-17" vertex="1" connectable="0">
          <mxGeometry x="-0.4018" y="-1" relative="1" as="geometry">
            <mxPoint as="offset" />
          </mxGeometry>
        </mxCell>
        <mxCell id="9qPh1k6vbmJMXDvl4d07-15" value="Лаборатория" style="rounded=0;whiteSpace=wrap;html=1;" parent="1" vertex="1">
          <mxGeometry x="270" y="220" width="120" height="60" as="geometry" />
        </mxCell>
      </root>
    </mxGraphModel>
  </diagram>
</mxfile>
